<?xml version="1.0" encoding="UTF-8" standalone="no"?>
<svg
   xmlns:dc="http://purl.org/dc/elements/1.1/"
   xmlns:cc="http://creativecommons.org/ns#"
   xmlns:rdf="http://www.w3.org/1999/02/22-rdf-syntax-ns#"
   xmlns:svg="http://www.w3.org/2000/svg"
   xmlns="http://www.w3.org/2000/svg"
   xmlns:xlink="http://www.w3.org/1999/xlink"
   id="svg8"
   version="1.1"
   viewBox="0 0 210 297"
   height="1122.5197"
   width="793.70081">
  <defs
     id="defs2">
    <linearGradient
       id="linearGradient4594">
      <stop
         id="stop4590"
         offset="0"
         style="stop-color:#fe9200;stop-opacity:1" />
      <stop
         id="stop4592"
         offset="1"
         style="stop-color:#ffaf00;stop-opacity:1" />
    </linearGradient>
    <linearGradient
       gradientUnits="userSpaceOnUse"
       y2="247.42218"
       x2="242.03546"
       y1="235.79526"
       x1="125.08214"
       id="linearGradient4596"
       xlink:href="#linearGradient4594" />
  </defs>
  <metadata
     id="metadata5">
    <rdf:RDF>
      <cc:Work
         rdf:about="">
        <dc:format>image/svg+xml</dc:format>
        <dc:type
           rdf:resource="http://purl.org/dc/dcmitype/StillImage" />
        <dc:title></dc:title>
      </cc:Work>
    </rdf:RDF>
  </metadata>
  <g
     id="layer1">
    <path
       id="path4552"
       d="m 140.58377,181.53955 c 4.63897,21.684 17.19056,31.00453 33.89737,33.83252 -3.1827,-2.44941 -3.16801,-4.63238 -3.42864,-6.83829 1.56411,1.48175 1.57953,2.91223 6.27133,3.19102 -1.49729,-1.84037 -1.13374,-2.88322 -0.92594,-3.99283 l 7.21627,5.34539 c -1.50191,-2.01517 -1.58306,-3.55674 -1.60361,-5.07812 3.60512,5.19891 8.26561,8.02456 13.12862,8.44191 -0.73435,-1.01051 -1.39938,-2.15968 -1.63604,-4.1656 2.65585,3.2192 5.66842,4.29815 8.55263,6.1472 8.13531,-7.7836 18.87122,-8.41345 34.82451,-5.82538 4.6224,0.74988 9.80301,2.50135 11.94766,3.41995 l 8.44191,1.76018 c -5.00523,4.0194 -11.69723,7.00642 -14.8888,11.93264 -4.58589,4.20251 -9.84171,8.77453 -15.15609,12.24854 2.22949,-0.32006 4.34291,-0.58853 8.77404,-1.8871 -0.75503,3.26291 -1.51005,4.17082 -2.26508,5.51817 -0.89565,0.56603 -1.94958,1.13207 -3.34758,1.69811 l 1.42395,0.63286 v 0 c -0.16327,0.76903 -0.80427,1.53807 -2.22576,2.3071 5.98955,7.14981 -0.62639,3.52526 -3.20723,4.27631 2.17377,0.37778 4.63442,0.35391 5.61266,2.40543 -1.12207,0.52251 -2.14565,1.07518 -2.53235,1.35256 -0.31119,1.62496 0.7011,1.9734 1.196,2.38921 1.46996,1.01803 3.19014,1.96827 5.17261,2.56477 -1.16411,0.45588 -2.11959,0.70312 -3.03445,0.90974 1.57599,0.22723 3.20702,0.17923 4.54358,1.60361 -3.53911,0.85263 -6.40307,2.68581 -7.17042,3.79042 2.34463,-0.52488 4.38429,0.47515 6.22548,2.4675 -2.5359,-0.47297 -5.07179,-0.26823 -7.60769,0.26726 1.74296,0.27925 3.24729,0.74941 3.74177,2.02745 -1.43464,-0.30411 -2.82395,-0.42684 -4.00904,0.26726 0.81907,0.30574 1.59623,0.44385 2.65649,1.71433 -1.81599,-0.2114 -3.61991,-0.36249 -5.18883,0.66145 -3.39984,0.64166 -6.56652,2.69642 -8.55263,4.51117 -17.18634,11.27228 -28.69157,10.14941 -40.49804,9.68377 -5.91296,-0.0656 -12.40206,-2.70029 -21.14543,-4.41712 -7.76313,-1.52434 -13.61736,-5.31816 -20.59448,-9.41882 -4.16435,-3.57371 -8.54422,-6.86005 -11.99748,-11.38188 -1.84039,-0.0643 -3.52173,-1.0828 -5.11055,-2.65649 3.28752,0.21668 6.16434,-0.18267 8.44471,-1.4767 -2.08863,-0.14496 -3.8103,-0.65687 -5.14298,-1.55777 l 3.82006,-0.34554 -1.94917,-3.12896 c 1.83455,0.26489 3.27653,-0.83653 5.61266,-2.32714 l -3.82005,-0.0783 c 1.31752,-0.95979 2.8513,-1.63125 4.92155,-1.5874 -2.77367,-2.13069 -2.64613,-3.30692 -2.89411,-4.74878 l 4.95399,2.49991 c -2.67307,-1.88848 -4.27283,-4.78003 -5.69094,-7.42148 l 4.62186,2.61063 c -3.0323,-3.14313 -4.59151,-6.49671 -5.87993,-9.88897 l 3.64728,4.26288 c -2.74648,-4.00457 -2.51269,-8.00913 -2.31094,-12.0137 l 2.6727,5.61266 c -0.89834,-3.66535 -1.89328,-7.33069 -2.31093,-10.99604 1.432,3.44825 2.73453,6.11971 3.91455,8.05608 -1.41322,-2.8631 -1.98135,-6.57129 -2.13816,-10.69079 1.04531,3.08451 2.21576,5.87704 4.00904,7.21628 -5.97483,-11.07169 -3.74512,-21.47815 -0.53453,-31.80507 2.423,-5.48843 5.37665,-9.91553 8.55262,-13.89802 z"
       style="fill:url(#linearGradient4596);stroke:#000000;stroke-width:0.26458332px;stroke-linecap:butt;stroke-linejoin:miter;stroke-opacity:1;fill-opacity:1" />
    <path
       id="path4558"
       d="m 176.46763,269.36992 c 2.82038,0.66936 5.69985,0.9842 8.64621,0.89768 -2.0063,0.93695 -4.09953,1.83527 -5.00819,3.26006 -0.98168,-1.30892 -1.92268,-2.60427 -3.63802,-4.15774 z"
       style="fill:#010a01;fill-opacity:1;stroke:none;stroke-width:0.26458332px;stroke-linecap:butt;stroke-linejoin:miter;stroke-opacity:1" />
    <path
       id="path4560"
       d="m 169.66406,278.38466 c 4.10302,0.26499 8.13437,0.47077 9.40216,-1.60639 0.75531,2.22592 4.29061,2.98869 7.32329,4.016 -1.85351,-0.32212 -3.54471,0.16733 -5.6224,-1.27569 -1.59041,0.53594 -3.63049,0.17257 -5.71689,-0.28347 -1.89078,0.6705 -3.61095,-0.3652 -5.38616,-0.85045 z"
       style="fill:#010a01;stroke:none;stroke-width:0.26458332px;stroke-linecap:butt;stroke-linejoin:miter;stroke-opacity:1;fill-opacity:1" />
    <path
       id="path4697"
       d="m 142.13249,240.40144 c 7.45244,0.7986 15.57315,-3.59866 22.84285,-2.29048 9.33297,1.94822 14.77852,6.97883 14.96869,16.17648 -17.55344,10.58469 -29.81896,4.91614 -37.81154,-13.886 z"
       style="fill:#000000;fill-opacity:1;stroke:none;stroke-width:0.20916404px;stroke-linecap:butt;stroke-linejoin:miter;stroke-opacity:1" />
    <path
       id="path4699"
       d="m 148.52537,246.19921 c 1.79454,-3.28997 4.9591,-4.06426 7.95212,-5.15357 -9.35283,14.48648 18.2475,23.48806 17.07365,3.07781 2.42754,2.07192 4.69776,4.35017 5.69123,8.30298 -15.20621,11.24765 -24.59466,5.97029 -30.717,-6.22722 z"
       style="fill:#ffaf00;fill-opacity:1;stroke:none;stroke-width:0.20916404px;stroke-linecap:butt;stroke-linejoin:miter;stroke-opacity:1" />
    <ellipse
       ry="3.1076245"
       rx="3.5292187"
       cy="244.0937"
       cx="164.48657"
       id="path4701"
       style="opacity:1;fill:#ffffff;fill-opacity:1;stroke:none;stroke-width:1.31625116;stroke-miterlimit:4;stroke-dasharray:none;stroke-opacity:1" />
    <path
       id="path4697-6"
       d="m 225.76078,255.76547 c -7.27609,-1.79849 -13.40311,-8.70797 -20.68184,-9.96506 -9.43645,-1.36134 -16.27417,1.50343 -19.59865,10.08132 12.87469,15.95 26.33924,14.81835 40.28049,-0.11626 z"
       style="fill:#000000;fill-opacity:1;stroke:none;stroke-width:0.20916404px;stroke-linecap:butt;stroke-linejoin:miter;stroke-opacity:1" />
    <path
       id="path4699-9"
       d="m 217.77052,259.02708 c -0.56107,-3.7053 -3.26994,-5.51524 -5.70993,-7.56254 3.83413,16.81169 -25.18043,15.83056 -17.09663,-2.94738 -2.98979,1.11672 -5.9023,2.48109 -8.1878,5.85572 10.44221,15.77018 21.06944,14.02212 30.99437,4.65415 z"
       style="fill:#ffaf00;fill-opacity:1;stroke:none;stroke-width:0.20916404px;stroke-linecap:butt;stroke-linejoin:miter;stroke-opacity:1" />
    <ellipse
       transform="matrix(-0.93969262,-0.34202015,-0.34202015,0.93969262,0,0)"
       ry="3.1076245"
       rx="3.5292187"
       cy="166.81851"
       cx="-277.26862"
       id="path4701-7"
       style="opacity:1;fill:#ffffff;fill-opacity:1;stroke:none;stroke-width:1.31625116;stroke-miterlimit:4;stroke-dasharray:none;stroke-opacity:1" />
  </g>
</svg>
